<svg width="146" height="78" viewBox="0 0 146 78" fill="none" xmlns="http://www.w3.org/2000/svg">
<path d="M1.3327 77.2177C0.509307 77.1265 -0.084273 76.3851 0.00690351 75.5617C0.09808 74.7383 0.839486 74.1447 1.66288 74.2359L1.49779 75.7268L1.3327 77.2177ZM141.226 0.532045C142.037 0.361665 142.832 0.880762 143.002 1.69148L145.779 14.9029C145.949 15.7136 145.43 16.5089 144.619 16.6793C143.809 16.8497 143.013 16.3306 142.843 15.5199L140.375 3.77641L128.632 6.2444C127.821 6.41478 127.025 5.89569 126.855 5.08497C126.685 4.27425 127.204 3.47892 128.015 3.30854L141.226 0.532045ZM1.49779 75.7268L1.66288 74.2359C11.1162 75.2827 25.1555 72.6874 36.4215 67.0481C47.7799 61.3625 55.5859 53.002 54.1369 42.8054L55.622 42.5943L57.107 42.3833C58.8474 54.6305 49.3741 63.9194 37.7643 69.7308C26.0622 75.5884 11.4447 78.3374 1.3327 77.2177L1.49779 75.7268ZM55.622 42.5943L54.1369 42.8054C53.2179 36.3385 49.6189 32.4477 45.0402 30.3988C40.3871 28.3166 34.6635 28.1237 29.6899 29.3036C24.6421 30.5011 20.8126 32.9926 19.477 35.819C18.8409 37.1651 18.7341 38.6451 19.3822 40.2813C20.0486 41.9637 21.552 43.8993 24.3119 45.9724L23.411 47.1717L22.5102 48.371C19.4848 46.0986 17.5314 43.7552 16.593 41.3861C15.6364 38.9708 15.7771 36.6269 16.7646 34.5372C18.6761 30.4922 23.5981 27.6655 28.9974 26.3847C34.4708 25.0862 40.8896 25.2548 46.2656 27.6604C51.716 30.0994 56.0327 34.8229 57.107 42.3833L55.622 42.5943ZM23.411 47.1717L24.3119 45.9724C31.2311 51.1697 40.8757 52.5995 51.9415 51.2643C62.9849 49.9318 75.2314 45.8672 87.1104 40.3516C98.98 34.8403 110.417 27.9108 119.833 20.9041C129.277 13.8757 136.577 6.85091 140.278 1.18013L141.534 1.99998L142.791 2.81982C138.802 8.93056 131.171 16.2064 121.624 23.3108C112.048 30.4371 100.434 37.4729 88.3738 43.0725C76.3232 48.6678 63.7618 52.8598 52.3009 54.2427C40.8624 55.6229 30.3063 54.2271 22.5102 48.371L23.411 47.1717Z" fill="#234E94"/>
</svg>
