<svg width="147" height="78" viewBox="0 0 147 78" fill="none" xmlns="http://www.w3.org/2000/svg">
<path d="M144.902 77.2177C145.725 77.1265 146.319 76.3851 146.228 75.5617C146.137 74.7383 145.395 74.1447 144.572 74.2359L144.737 75.7268L144.902 77.2177ZM5.00869 0.532045C4.19796 0.361665 3.40263 0.880763 3.23225 1.69148L0.455751 14.9029C0.285383 15.7136 0.804472 16.5089 1.61519 16.6793C2.4259 16.8497 3.22125 16.3306 3.39163 15.5199L5.85963 3.77641L17.6031 6.2444C18.4138 6.41478 19.2091 5.89569 19.3795 5.08497C19.5499 4.27425 19.0308 3.47892 18.2201 3.30854L5.00869 0.532045ZM144.737 75.7268L144.572 74.2359C135.118 75.2827 121.079 72.6874 109.813 67.0481C98.4548 61.3625 90.6487 53.002 92.0977 42.8054L90.6126 42.5943L89.1276 42.3833C87.3872 54.6305 96.8606 63.9194 108.47 69.7308C120.172 75.5884 134.79 78.3374 144.902 77.2177L144.737 75.7268ZM90.6126 42.5943L92.0977 42.8054C93.0167 36.3385 96.6157 32.4477 101.194 30.3988C105.847 28.3166 111.571 28.1237 116.545 29.3036C121.593 30.5011 125.422 32.9926 126.758 35.819C127.394 37.1651 127.501 38.6451 126.852 40.2813C126.186 41.9637 124.683 43.8993 121.923 45.9724L122.824 47.1717L123.724 48.371C126.75 46.0986 128.703 43.7552 129.642 41.3861C130.598 38.9708 130.458 36.6269 129.47 34.5372C127.559 30.4922 122.637 27.6655 117.237 26.3846C111.764 25.0862 105.345 25.2548 99.969 27.6604C94.5187 30.0994 90.202 34.8229 89.1276 42.3833L90.6126 42.5943ZM122.824 47.1717L121.923 45.9724C115.004 51.1697 105.359 52.5995 94.2931 51.2643C83.2497 49.9318 71.0033 45.8672 59.1242 40.3516C47.2547 34.8403 35.8171 27.9108 26.4018 20.9041C16.9572 13.8757 9.65749 6.85091 5.95632 1.18014L4.70018 1.99998L3.44406 2.81982C7.43239 8.93056 15.0641 16.2064 24.6108 23.3108C34.1869 30.4371 45.8007 37.4729 57.8608 43.0725C69.9114 48.6678 82.4728 52.8598 93.9337 54.2427C105.372 55.6229 115.928 54.2271 123.724 48.371L122.824 47.1717Z" fill="#234E94"/>
</svg>
