<svg width="228" height="48" viewBox="0 0 228 48" fill="none" xmlns="http://www.w3.org/2000/svg">
<path d="M24 44C24 44 40 36 40 24V10L24 4L8 10V24C8 36 24 44 24 44Z" stroke="url(#paint0_linear_265_194)" stroke-width="4" stroke-linecap="round" stroke-linejoin="round"/>
<path d="M68.9432 21.0057H63.9659C63.875 20.3618 63.6894 19.7898 63.4091 19.2898C63.1288 18.7822 62.7689 18.3504 62.3295 17.9944C61.8902 17.6383 61.3826 17.3656 60.8068 17.1762C60.2386 16.9868 59.6212 16.8921 58.9545 16.8921C57.75 16.8921 56.7008 17.1913 55.8068 17.7898C54.9129 18.3807 54.2197 19.2444 53.7273 20.3807C53.2348 21.5095 52.9886 22.8807 52.9886 24.4944C52.9886 26.1534 53.2348 27.5474 53.7273 28.6762C54.2273 29.805 54.9242 30.6572 55.8182 31.233C56.7121 31.8087 57.7462 32.0966 58.9205 32.0966C59.5795 32.0966 60.1894 32.0095 60.75 31.8353C61.3182 31.661 61.822 31.4072 62.2614 31.0739C62.7008 30.733 63.0644 30.3201 63.3523 29.8353C63.6477 29.3504 63.8523 28.7974 63.9659 28.1762L68.9432 28.1989C68.8144 29.2671 68.4924 30.2974 67.9773 31.2898C67.4697 32.2747 66.7841 33.1572 65.9205 33.9375C65.0644 34.7103 64.0417 35.3239 62.8523 35.7784C61.6705 36.2254 60.3333 36.4489 58.8409 36.4489C56.7652 36.4489 54.9091 35.9792 53.2727 35.0398C51.6439 34.1004 50.3561 32.7406 49.4091 30.9603C48.4697 29.18 48 27.0247 48 24.4944C48 21.9565 48.4773 19.7974 49.4318 18.0171C50.3864 16.2368 51.6818 14.8807 53.3182 13.9489C54.9545 13.0095 56.7955 12.5398 58.8409 12.5398C60.1894 12.5398 61.4394 12.7292 62.5909 13.108C63.75 13.4868 64.7765 14.0398 65.6705 14.7671C66.5644 15.4868 67.2917 16.3694 67.8523 17.4148C68.4205 18.4603 68.7841 19.6572 68.9432 21.0057Z" fill="black"/>
<path d="M77.2216 26.0398V36.1307H72.3807V12.858H77.0852V21.7557H77.2898C77.6837 20.7254 78.3201 19.9186 79.1989 19.3353C80.0777 18.7444 81.1799 18.4489 82.5057 18.4489C83.7178 18.4489 84.7746 18.714 85.6761 19.2444C86.5852 19.7671 87.2898 20.5209 87.7898 21.5057C88.2973 22.483 88.5473 23.6534 88.5398 25.0171V36.1307H83.6989V25.8807C83.7064 24.805 83.4337 23.9678 82.8807 23.3694C82.3352 22.7709 81.5701 22.4716 80.5852 22.4716C79.9261 22.4716 79.3428 22.6118 78.8352 22.8921C78.3352 23.1724 77.9413 23.5815 77.6534 24.1194C77.3731 24.6497 77.2292 25.2898 77.2216 26.0398Z" fill="black"/>
<path d="M100.304 36.4716C98.5085 36.4716 96.9631 36.108 95.6676 35.3807C94.3797 34.6459 93.3873 33.608 92.6903 32.2671C91.9934 30.9186 91.6449 29.3239 91.6449 27.483C91.6449 25.6875 91.9934 24.1118 92.6903 22.7557C93.3873 21.3997 94.3684 20.3428 95.6335 19.5853C96.9062 18.8277 98.3987 18.4489 100.111 18.4489C101.262 18.4489 102.334 18.6345 103.327 19.0057C104.327 19.3694 105.198 19.9186 105.94 20.6534C106.69 21.3883 107.274 22.3125 107.69 23.4262C108.107 24.5322 108.315 25.8277 108.315 27.3125V28.6421H93.5767V25.6421H103.759C103.759 24.9451 103.607 24.3277 103.304 23.7898C103.001 23.2519 102.58 22.8315 102.043 22.5284C101.512 22.2178 100.895 22.0625 100.19 22.0625C99.4555 22.0625 98.804 22.233 98.2358 22.5739C97.6752 22.9072 97.2358 23.358 96.9176 23.9262C96.5994 24.4868 96.4366 25.1118 96.429 25.8012V28.6534C96.429 29.5171 96.5881 30.2633 96.9062 30.8921C97.232 31.5209 97.6903 32.0057 98.2812 32.3466C98.8722 32.6875 99.5729 32.858 100.384 32.858C100.921 32.858 101.414 32.7822 101.861 32.6307C102.308 32.4792 102.69 32.2519 103.009 31.9489C103.327 31.6459 103.569 31.2747 103.736 30.8353L108.213 31.1307C107.986 32.2065 107.52 33.1459 106.815 33.9489C106.118 34.7444 105.217 35.3656 104.111 35.8125C103.012 36.2519 101.743 36.4716 100.304 36.4716Z" fill="black"/>
<path d="M119.361 36.4716C117.573 36.4716 116.035 36.0928 114.747 35.3353C113.467 34.5701 112.482 33.5095 111.793 32.1534C111.111 30.7974 110.77 29.2368 110.77 27.4716C110.77 25.6837 111.115 24.1156 111.804 22.7671C112.501 21.411 113.49 20.3542 114.77 19.5966C116.05 18.8315 117.573 18.4489 119.338 18.4489C120.861 18.4489 122.194 18.7254 123.338 19.2784C124.482 19.8315 125.387 20.608 126.054 21.608C126.721 22.608 127.088 23.7822 127.156 25.1307H122.588C122.459 24.2595 122.118 23.5587 121.565 23.0284C121.02 22.4906 120.304 22.2216 119.418 22.2216C118.668 22.2216 118.012 22.4262 117.452 22.8353C116.899 23.2368 116.467 23.8239 116.156 24.5966C115.846 25.3694 115.69 26.305 115.69 27.4034C115.69 28.5171 115.842 29.464 116.145 30.2444C116.455 31.0247 116.891 31.6194 117.452 32.0284C118.012 32.4375 118.668 32.6421 119.418 32.6421C119.971 32.6421 120.467 32.5284 120.906 32.3012C121.353 32.0739 121.721 31.7444 122.009 31.3125C122.304 30.8731 122.497 30.3466 122.588 29.733H127.156C127.08 31.0663 126.717 32.2406 126.065 33.2557C125.421 34.2633 124.531 35.0512 123.395 35.6194C122.259 36.1875 120.914 36.4716 119.361 36.4716Z" fill="black"/>
<path d="M134.642 31.108L134.653 25.3012H135.358L140.949 18.6762H146.506L138.994 27.4489H137.847L134.642 31.108ZM130.256 36.1307V12.858H135.097V36.1307H130.256ZM141.165 36.1307L136.028 28.5284L139.256 25.108L146.835 36.1307H141.165Z" fill="black"/>
<path d="M148.972 36.1307V12.858H158.153C159.919 12.858 161.422 13.1951 162.665 13.8694C163.907 14.536 164.854 15.464 165.506 16.6534C166.165 17.8353 166.494 19.1989 166.494 20.7444C166.494 22.2898 166.161 23.6534 165.494 24.8353C164.828 26.0171 163.862 26.9375 162.597 27.5966C161.339 28.2557 159.816 28.5853 158.028 28.5853H152.176V24.6421H157.233C158.18 24.6421 158.96 24.4792 159.574 24.1534C160.195 23.8201 160.657 23.3618 160.96 22.7784C161.271 22.1875 161.426 21.5095 161.426 20.7444C161.426 19.9716 161.271 19.2974 160.96 18.7216C160.657 18.1383 160.195 17.6875 159.574 17.3694C158.953 17.0436 158.165 16.8807 157.21 16.8807H153.892V36.1307H148.972Z" fill="black"/>
<path d="M177.205 36.4716C175.439 36.4716 173.913 36.0966 172.625 35.3466C171.345 34.5891 170.356 33.536 169.659 32.1875C168.962 30.8315 168.614 29.2595 168.614 27.4716C168.614 25.6686 168.962 24.0928 169.659 22.7444C170.356 21.3883 171.345 20.3353 172.625 19.5853C173.913 18.8277 175.439 18.4489 177.205 18.4489C178.97 18.4489 180.492 18.8277 181.773 19.5853C183.061 20.3353 184.053 21.3883 184.75 22.7444C185.447 24.0928 185.795 25.6686 185.795 27.4716C185.795 29.2595 185.447 30.8315 184.75 32.1875C184.053 33.536 183.061 34.5891 181.773 35.3466C180.492 36.0966 178.97 36.4716 177.205 36.4716ZM177.227 32.7216C178.03 32.7216 178.701 32.4944 179.239 32.0398C179.777 31.5777 180.182 30.9489 180.455 30.1534C180.735 29.358 180.875 28.4527 180.875 27.4375C180.875 26.4224 180.735 25.5171 180.455 24.7216C180.182 23.9262 179.777 23.2974 179.239 22.8353C178.701 22.3731 178.03 22.1421 177.227 22.1421C176.417 22.1421 175.735 22.3731 175.182 22.8353C174.636 23.2974 174.223 23.9262 173.943 24.7216C173.67 25.5171 173.534 26.4224 173.534 27.4375C173.534 28.4527 173.67 29.358 173.943 30.1534C174.223 30.9489 174.636 31.5777 175.182 32.0398C175.735 32.4944 176.417 32.7216 177.227 32.7216Z" fill="black"/>
<path d="M188.943 36.1307V18.6762H193.784V36.1307H188.943ZM191.375 16.4262C190.655 16.4262 190.038 16.1875 189.523 15.7103C189.015 15.2254 188.761 14.6459 188.761 13.9716C188.761 13.305 189.015 12.733 189.523 12.2557C190.038 11.7709 190.655 11.5284 191.375 11.5284C192.095 11.5284 192.708 11.7709 193.216 12.2557C193.731 12.733 193.989 13.305 193.989 13.9716C193.989 14.6459 193.731 15.2254 193.216 15.7103C192.708 16.1875 192.095 16.4262 191.375 16.4262Z" fill="black"/>
<path d="M202.503 26.0398V36.1307H197.662V18.6762H202.276V21.7557H202.48C202.866 20.7406 203.514 19.9375 204.423 19.3466C205.332 18.7481 206.435 18.4489 207.73 18.4489C208.942 18.4489 209.999 18.714 210.901 19.2444C211.802 19.7747 212.503 20.5322 213.003 21.5171C213.503 22.4944 213.753 23.661 213.753 25.0171V36.1307H208.912V25.8807C208.92 24.8125 208.647 23.9792 208.094 23.3807C207.541 22.7747 206.779 22.4716 205.81 22.4716C205.158 22.4716 204.582 22.6118 204.082 22.8921C203.59 23.1724 203.204 23.5815 202.923 24.1194C202.651 24.6497 202.51 25.2898 202.503 26.0398Z" fill="black"/>
<path d="M226.852 18.6762V22.3125H216.341V18.6762H226.852ZM218.727 14.4944H223.568V30.7671C223.568 31.214 223.636 31.5625 223.773 31.8125C223.909 32.055 224.098 32.2254 224.341 32.3239C224.591 32.4224 224.879 32.4716 225.205 32.4716C225.432 32.4716 225.659 32.4527 225.886 32.4148C226.114 32.3694 226.288 32.3353 226.409 32.3125L227.17 35.9148C226.928 35.9906 226.587 36.0777 226.148 36.1762C225.708 36.2822 225.174 36.3466 224.545 36.3694C223.379 36.4148 222.356 36.2595 221.477 35.9034C220.606 35.5474 219.928 34.9944 219.443 34.2444C218.958 33.4944 218.72 32.5474 218.727 31.4034V14.4944Z" fill="black"/>
<defs>
<linearGradient id="paint0_linear_265_194" x1="44.5" y1="5.5" x2="3.5" y2="52" gradientUnits="userSpaceOnUse">
<stop stop-color="#1D44D9"/>
<stop offset="1" stop-color="#DBEAFE"/>
</linearGradient>
</defs>
</svg>
