<svg width="52" height="52" viewBox="0 0 52 52" fill="none" xmlns="http://www.w3.org/2000/svg">
<path d="M26.8994 13.2719V12.2719H24.8994V13.2719H25.8994H26.8994ZM24.8994 39.2719C24.8994 39.8242 25.3471 40.2719 25.8994 40.2719C26.4516 40.2719 26.8994 39.8242 26.8994 39.2719H25.8994H24.8994ZM35.8994 30.2719H36.8994V28.2719H35.8994V29.2719V30.2719ZM25.122 38.6926C24.8575 39.1774 25.0362 39.7849 25.521 40.0493C26.0059 40.3138 26.6133 40.1351 26.8778 39.6502L25.9999 39.1714L25.122 38.6926ZM15.9999 28.2718L14.9999 28.2718L14.9999 30.2718L15.9999 30.2718L15.9999 29.2718L15.9999 28.2718ZM25.8994 13.2719H24.8994V39.1713H25.8994H26.8994V13.2719H25.8994ZM25.8994 39.1713H24.8994V39.2719H25.8994H26.8994V39.1713H25.8994ZM35.8994 29.2719V28.2719C34.427 28.2719 33.0206 29.0672 31.8225 30.0435C30.5998 31.0397 29.4496 32.3436 28.4708 33.6102C27.4875 34.8828 26.6524 36.1504 26.0644 37.0969C25.7698 37.5712 25.5359 37.9671 25.3748 38.2457C25.2943 38.385 25.232 38.4952 25.1893 38.5712C25.168 38.6093 25.1516 38.6388 25.1403 38.6592C25.1347 38.6694 25.1303 38.6774 25.1272 38.683C25.1257 38.6857 25.1245 38.688 25.1236 38.6896C25.1232 38.6904 25.1228 38.691 25.1225 38.6915C25.1224 38.6918 25.1223 38.692 25.1222 38.6922C25.1221 38.6924 25.122 38.6926 25.9999 39.1714C26.8778 39.6502 26.8777 39.6504 26.8777 39.6504C26.8777 39.6504 26.8777 39.6504 26.8777 39.6504C26.8777 39.6503 26.8779 39.65 26.8781 39.6496C26.8785 39.6489 26.8793 39.6475 26.8804 39.6455C26.8825 39.6416 26.886 39.6353 26.8907 39.6268C26.9001 39.6097 26.9146 39.5837 26.9339 39.5492C26.9725 39.4803 27.0306 39.3777 27.1065 39.2464C27.2583 38.9836 27.4814 38.6061 27.7633 38.1523C28.3283 37.2427 29.1244 36.0354 30.0534 34.8331C30.987 33.6249 32.0304 32.4539 33.0858 31.5939C34.1657 30.7141 35.1218 30.2719 35.8994 30.2719V29.2719ZM25.8994 39.1713C26.8265 38.7967 26.8264 38.7964 26.8263 38.7961C26.8262 38.796 26.8261 38.7956 26.826 38.7953C26.8257 38.7947 26.8254 38.7939 26.825 38.793C26.8243 38.7912 26.8233 38.7888 26.8221 38.7858C26.8196 38.7797 26.8162 38.7713 26.8118 38.7607C26.8029 38.7393 26.7902 38.7089 26.7737 38.6698C26.7406 38.5918 26.6922 38.4797 26.629 38.3382C26.5027 38.0553 26.3168 37.6545 26.0754 37.1749C25.5938 36.2182 24.8852 34.9358 23.9804 33.647C23.0792 32.3634 21.9593 31.0384 20.6458 30.0265C19.3309 29.0134 17.7652 28.2718 15.9999 28.2718L15.9999 29.2718L15.9999 30.2718C17.1843 30.2718 18.3309 30.7677 19.4252 31.6108C20.5209 32.455 21.5072 33.6049 22.3435 34.7962C23.1761 35.9822 23.8362 37.1747 24.289 38.0742C24.5147 38.5226 24.6874 38.8952 24.8029 39.1538C24.8606 39.2829 24.9039 39.3834 24.9323 39.4505C24.9465 39.4839 24.957 39.5091 24.9637 39.5252C24.967 39.5332 24.9694 39.5391 24.9708 39.5425C24.9715 39.5443 24.972 39.5455 24.9722 39.546C24.9723 39.5463 24.9724 39.5464 24.9724 39.5464C24.9724 39.5464 24.9723 39.5463 24.9723 39.5463C24.9723 39.5462 24.9722 39.546 25.8994 39.1713Z" fill="white"/>
</svg>
